<svg width="30" height="30" viewBox="0 0 30 30" fill="none" xmlns="http://www.w3.org/2000/svg">
<path d="M1 9H29V26C29 27.6569 27.6569 29 26 29H4C2.34315 29 1 27.6569 1 26V9Z" fill="white"/>
<path d="M26.1328 2.34375H23.4375V0.9375C23.4375 0.419766 23.0178 0 22.5 0C21.9822 0 21.5625 0.419766 21.5625 0.9375V2.34375H8.4375V0.9375C8.4375 0.419766 8.01779 0 7.5 0C6.98221 0 6.5625 0.419766 6.5625 0.9375V2.34375H3.86719C1.73479 2.34375 0 4.07854 0 6.21094V26.1328C0 28.2652 1.73479 30 3.86719 30H26.1328C28.2652 30 30 28.2652 30 26.1328V6.21094C30 4.07854 28.2652 2.34375 26.1328 2.34375ZM28.125 26.1328C28.125 27.2331 27.2331 28.125 26.1328 28.125H3.86719C2.76691 28.125 1.875 27.2331 1.875 26.1328V10.6055C1.875 10.4437 2.00619 10.3125 2.16797 10.3125H27.832C27.9938 10.3125 28.125 10.4437 28.125 10.6055V26.1328Z" fill="#BDBDBD"/>
<circle cx="23" cy="15" r="2" fill="#BDBDBD"/>
<circle cx="23" cy="22" r="2" fill="#EEEEEE"/>
<circle cx="15" cy="15" r="2" fill="#EEEEEE"/>
<circle cx="15" cy="22" r="2" fill="#EEEEEE"/>
<circle cx="7" cy="15" r="2" fill="#EEEEEE"/>
<circle cx="7" cy="22" r="2" fill="#EEEEEE"/>
</svg>
