<svg width="27" height="27" viewBox="0 0 27 27" fill="none" xmlns="http://www.w3.org/2000/svg">
<g clip-path="url(#clip0)">
<path d="M26.1562 4.15125V5.90625H0.84375V4.15125C0.84375 2.90812 1.85062 1.90125 3.09375 1.90125H23.9062C25.1494 1.90125 26.1562 2.90812 26.1562 4.15125Z" fill="#BDBDBD"/>
<path d="M26.1562 5.90625V23.76C26.1562 24.4575 25.5937 25.0313 24.8962 25.0313H2.10375C1.40625 25.0313 0.84375 24.4575 0.84375 23.76V5.90625H26.1562Z" fill="white"/>
<path d="M7.59362 20.25C7.37762 20.25 7.16162 20.1679 6.99737 20.0025C6.66774 19.6729 6.66774 19.1385 6.99737 18.8089L10.0562 15.75L6.99624 12.69C6.66662 12.3604 6.66662 11.826 6.99624 11.4964C7.32587 11.1667 7.86024 11.1667 8.18987 11.4964L11.8461 15.1526C12.1757 15.4822 12.1757 16.0166 11.8461 16.3462L8.18987 20.0025C8.02562 20.1679 7.80962 20.25 7.59362 20.25V20.25Z" fill="#BDBDBD"/>
<path d="M19.4062 20.25H14.3438C13.878 20.25 13.5 19.872 13.5 19.4062C13.5 18.9405 13.878 18.5625 14.3438 18.5625H19.4062C19.872 18.5625 20.25 18.9405 20.25 19.4062C20.25 19.872 19.872 20.25 19.4062 20.25Z" fill="#BDBDBD"/>
<path d="M23.9062 25.875H3.09375C1.38713 25.875 0 24.4879 0 22.7812V4.21875C0 2.51213 1.38713 1.125 3.09375 1.125H23.9062C25.6129 1.125 27 2.51213 27 4.21875V22.7812C27 24.4879 25.6129 25.875 23.9062 25.875ZM3.09375 2.8125C2.31862 2.8125 1.6875 3.44362 1.6875 4.21875V22.7812C1.6875 23.5564 2.31862 24.1875 3.09375 24.1875H23.9062C24.6814 24.1875 25.3125 23.5564 25.3125 22.7812V4.21875C25.3125 3.44362 24.6814 2.8125 23.9062 2.8125H3.09375Z" fill="#BDBDBD"/>
<path d="M26.1562 6.75H0.84375C0.378 6.75 0 6.372 0 5.90625C0 5.4405 0.378 5.0625 0.84375 5.0625H26.1562C26.622 5.0625 27 5.4405 27 5.90625C27 6.372 26.622 6.75 26.1562 6.75Z" fill="#BDBDBD"/>
</g>
<defs>
<clipPath id="clip0">
<rect width="27" height="27" fill="white"/>
</clipPath>
</defs>
</svg>
