<svg width="30" height="30" viewBox="0 0 30 30" fill="none" xmlns="http://www.w3.org/2000/svg">
<g clip-path="url(#clip0)">
<path d="M18.7037 26.1265C18.1479 25.7557 17.8094 25.0999 17.8094 24.3936V22.6263L17.5528 22.3813H12.6937L12.1906 22.6263V24.3936C12.1906 25.0999 11.8522 25.7557 11.2963 26.1265L10.0508 26.9573L10.3094 27.1952H19.741L19.9493 26.9573L18.7037 26.1265Z" fill="#FA7328"/>
<path d="M28.2604 1.15967H1.73959C0.780351 1.15967 0 1.94002 0 2.89926V20.8867C0 21.846 0.780351 22.6263 1.73959 22.6263H28.2604C29.2196 22.6263 30 21.846 30 20.8867V2.89926C30 1.94002 29.2196 1.15967 28.2604 1.15967V1.15967Z" fill="#FA7328"/>
<path d="M27.8447 5.02734H2.31174L1.8833 5.28141V20.493C1.8833 20.6313 1.99533 20.7433 2.13361 20.7433H3.9533L4.28857 20.3744H15.0003L15.3945 20.7433H27.8669C28.0052 20.7433 28.1172 20.6313 28.1172 20.493C28.1172 12.5974 28.1172 13.2398 28.1172 5.28141L27.8447 5.02734Z" fill="white"/>
<path d="M4.6017 20.3743V5.02734H2.31174L1.8833 5.28141V20.493C1.8833 20.6313 1.99533 20.7433 2.13361 20.7433H3.9533L4.28857 20.3744H4.6017V20.3743Z" fill="white"/>
<path d="M20.9861 26.9574H9.01422C8.68088 26.9574 8.41064 27.2276 8.41064 27.561V28.2369C8.41064 28.5702 8.68088 28.8404 9.01422 28.8404H20.9861C21.3194 28.8404 21.5897 28.5702 21.5897 28.2369V27.561C21.5897 27.2276 21.3194 26.9574 20.9861 26.9574Z" fill="#FA7328"/>
<path d="M4.6017 3.04272H2.13361C1.99539 3.04272 1.8833 3.15476 1.8833 3.29304V5.28147H4.6017L4.71109 5.19347V3.19395L4.6017 3.04272Z" fill="white"/>
<path d="M27.8668 3.04272H4.60156V5.28147H28.1171C28.1171 4.23364 28.1171 3.50374 28.1171 3.29304C28.1171 3.15476 28.005 3.04272 27.8668 3.04272Z" fill="white"/>
<path d="M17.88 8.55627H17.2647C17.0147 8.55627 16.812 8.35359 16.812 8.10357C16.812 7.85355 17.0147 7.65088 17.2647 7.65088H17.88C18.13 7.65088 18.3327 7.85355 18.3327 8.10357C18.3327 8.35359 18.13 8.55627 17.88 8.55627Z" fill="#FC9D69"/>
<path d="M17.88 10.4408H17.2647C17.0147 10.4408 16.812 10.2381 16.812 9.9881C16.812 9.73808 17.0147 9.5354 17.2647 9.5354H17.88C18.13 9.5354 18.3327 9.73808 18.3327 9.9881C18.3327 10.2381 18.13 10.4408 17.88 10.4408Z" fill="#FC9D69"/>
<path d="M17.88 12.3254H17.2647C17.0147 12.3254 16.812 12.1228 16.812 11.8727C16.812 11.6227 17.0147 11.42 17.2647 11.42H17.88C18.13 11.42 18.3327 11.6227 18.3327 11.8727C18.3327 12.1228 18.13 12.3254 17.88 12.3254Z" fill="#FC9D69"/>
<path d="M25.2844 8.55627H19.5987C19.3487 8.55627 19.146 8.35359 19.146 8.10357C19.146 7.85355 19.3487 7.65088 19.5987 7.65088H25.2844C25.5344 7.65088 25.7371 7.85355 25.7371 8.10357C25.7371 8.35359 25.5344 8.55627 25.2844 8.55627Z" fill="#FED5BF"/>
<path d="M25.2844 10.4408H19.5987C19.3487 10.4408 19.146 10.2381 19.146 9.9881C19.146 9.73808 19.3487 9.5354 19.5987 9.5354H25.2844C25.5344 9.5354 25.7371 9.73808 25.7371 9.9881C25.7371 10.2381 25.5344 10.4408 25.2844 10.4408Z" fill="#FED5BF"/>
<path d="M25.2844 12.3256H19.5987C19.3487 12.3256 19.146 12.1229 19.146 11.8729C19.146 11.6228 19.3487 11.4202 19.5987 11.4202H25.2844C25.5344 11.4202 25.7371 11.6228 25.7371 11.8729C25.7371 12.1229 25.5344 12.3256 25.2844 12.3256Z" fill="#FED5BF"/>
<path d="M14.1834 16.8074C14.0673 16.7624 12.36 16.1012 11.5153 15.7741C11.1158 16.3452 10.454 16.7201 9.70563 16.7201C8.87523 16.7201 8.2167 16.331 7.8267 15.7675L5.16402 16.8074C4.64635 17.0204 3.95312 17.6908 3.95312 18.6855V20.7433H15.3943V18.6855C15.3943 17.8288 14.8458 17.08 14.1834 16.8074V16.8074Z" fill="#DD636E"/>
<path d="M6.484 20.7433V18.6727C6.484 18.4226 6.28133 18.22 6.03131 18.22C5.78129 18.22 5.57861 18.4226 5.57861 18.6727V20.7433H6.484Z" fill="#DA4A54"/>
<path d="M13.7687 20.7433V18.6727C13.7687 18.4226 13.566 18.22 13.316 18.22C13.066 18.22 12.8633 18.4226 12.8633 18.6727V20.7433H13.7687Z" fill="#DA4A54"/>
<path d="M10.9115 15.3876L10.9113 14.5572C10.5591 14.7686 10.1473 14.8905 9.7075 14.8905C9.22223 14.8905 8.79221 14.7651 8.4342 14.5531V15.3862C8.4342 15.4784 8.38984 15.5328 8.33881 15.5674L7.76318 15.7922C8.14287 16.4073 8.82871 16.8408 9.70557 16.8408C10.4952 16.8408 11.1889 16.4239 11.5793 15.799C11.2937 15.6884 11.0914 15.61 11.0547 15.5958C10.9688 15.5626 10.9118 15.4801 10.9115 15.3876V15.3876Z" fill="#FFCEBE"/>
<path d="M11.2746 10.2333C11.2746 10.1902 11.2168 10.1753 11.1965 10.2134C10.934 10.7044 10.4166 11.0386 9.82088 11.0386H7.29297V12.6646C7.29297 13.8911 8.2539 15.0112 9.70744 15.0112C11.0014 15.0112 12.054 13.9585 12.054 12.6646V11.0372C11.623 11.0234 11.2746 10.6675 11.2746 10.2333V10.2333Z" fill="#FFDECF"/>
<path d="M11.77 8.31312C11.559 8.32935 11.3655 8.19669 11.3249 7.98903C11.2565 7.63929 11.0834 7.29224 10.407 7.29224H8.06039C7.19918 7.29224 6.50098 7.99038 6.50098 8.85165V10.5631C6.50098 10.9257 6.79494 11.2197 7.15758 11.2197H9.8209C10.4166 11.2197 10.934 10.8854 11.1965 10.3944C11.2168 10.3563 11.2746 10.3712 11.2746 10.4144C11.2746 10.8573 11.637 11.2197 12.0799 11.2197C12.312 11.2197 12.502 11.0297 12.502 10.7975V9.01161C12.502 8.59085 12.1349 8.28505 11.77 8.31312Z" fill="#B06C6C"/>
</g>
<defs>
<clipPath id="clip0">
<rect width="30" height="30" fill="white"/>
</clipPath>
</defs>
</svg>
